Coordinates
version=1
nRows=6
nColumns=36
inDegrees=yes

Units are S.I. units (second, meters, Newtons, ...)
Angles are in degrees.

endheader
time	pelvis_tilt	pelvis_list	pelvis_rotation	pelvis_tx	pelvis_ty	pelvis_tz	hip_flexion_r	hip_adduction_r	hip_rotation_r	knee_angle_r	ankle_angle_r	subtalar_angle_r	hip_flexion_l	hip_adduction_l	hip_rotation_l	knee_angle_l	ankle_angle_l	subtalar_angle_l	lumbar_extension	lumbar_bending	lumbar_rotation	arm_flex_r	arm_add_r	arm_rot_r	elbow_flex_r	pro_sup_r	wrist_flex_r	wrist_dev_r	arm_flex_l	arm_add_l	arm_rot_l	elbow_flex_l	pro_sup_l	wrist_flex_l	wrist_dev_l
      3.05000000	     -1.24963157	     -1.09767920	      0.76392195	     -0.98765557	      0.92843627	     -0.20261847	      3.53631039	      4.38446394	     -6.45975591	    -17.45105541	      9.92358679	      3.01500355	     26.15330932	      1.76742249	      3.75251406	    -48.61724155	      2.36890450	     -3.73306056	     -7.47219168	      4.37781678	     -0.24891416	     -0.02863938	    -21.41869297	     14.29050829	     31.56798331	     86.51662706	      0.00000000	      0.00000000	     -4.27168384	    -13.71900169	     17.50548122	     19.68845720	     86.51662706	      0.00000000	      0.00000000
      3.06000000	     -1.13565141	     -1.17619414	      0.84704318	     -0.97647816	      0.92768540	     -0.20259050	      2.34644442	      4.57366525	     -6.40318166	    -16.87453179	     10.34128449	      2.56689531	     26.50334976	      1.67108105	      3.94361038	    -45.67701330	      2.50515797	     -5.11145061	     -7.65959525	      4.46569883	     -0.06609023	      0.32575756	    -21.65374520	     14.38564845	     32.32851817	     86.51662706	      0.00000000	      0.00000000	     -4.39261642	    -13.64341688	     17.39132266	     19.48016735	     86.51662706	      0.00000000	      0.00000000
      3.07000000	     -0.96859260	     -1.19746325	      0.90720587	     -0.96511308	      0.92687059	     -0.20263518	      1.08117483	      4.68317888	     -6.33665407	    -16.30945442	     10.77657751	      2.34348097	     26.67938026	      1.61913255	      4.11168438	    -42.57774588	      2.47829408	     -6.51784353	     -7.89146112	      4.48857612	      0.12940936	      0.62669903	    -21.86000797	     14.32066340	     33.08193434	     86.51662706	      0.00000000	      0.00000000	     -4.48932896	    -13.59194754	     17.27153270	     19.25110921	     86.51662706	      0.00000000	      0.00000000
      3.08000000	     -0.76791546	     -1.18327814	      0.95767784	     -0.95360042	      0.92597337	     -0.20275790	     -0.23161526	      4.74025561	     -6.26137186	    -15.76446436	     11.22687911	      2.26653891	     26.71742782	      1.59329638	      4.27655819	    -39.35407386	      2.35753172	     -7.86056809	     -8.14853568	      4.46910984	      0.32813889	      0.87760409	    -22.04066815	     14.12462586	     33.82582166	     86.51662706	      0.00000000	      0.00000000	     -4.56360912	    -13.55581161	     17.15924284	     18.99665351	     86.51662706	      0.00000000	      0.00000000
      3.09000000	     -0.55766135	     -1.15744085	      1.01210104	     -0.94197201	      0.92496721	     -0.20295187	     -1.55499507	      4.77632102	     -6.17875688	    -15.25222058	     11.68736855	      2.24558929	     26.66115319	      1.57314313	      4.45506989	    -36.05452874	      2.22211132	     -9.01964167	     -8.40490484	      4.43235574	      0.51886671	      1.08206956	    -22.19936118	     13.83299182	     34.55599476	     86.51662706	      0.00000000	      0.00000000	     -4.61712656	    -13.52589041	     17.07095896	     18.71107147	     86.51662706	      0.00000000	      0.00000000
      3.10000000	     -0.36206757	     -1.13889341	      1.08022907	     -0.93024418	      0.92382158	     -0.20320508	     -2.84975349	      4.81908663	     -6.09052641	    -14.78837306	     12.15045736	      2.20099081	     26.55341182	      1.54168764	      4.65153700	    -32.73622158	      2.14234585	     -9.87011553	     -8.63227798	      4.39908639	      0.69131079	      1.24314258	    -22.33953361	     13.48058177	     35.26654934	     86.51662706	      0.00000000	      0.00000000	     -4.65082411	    -13.49498105	     17.02340316	     18.38884566	     86.51662706	      0.00000000	      0.00000000
